<svg xmlns="http://www.w3.org/2000/svg" width="1200" height="630" viewBox="0 0 1200 630">
  <defs>
    <pattern id="grid" width="40" height="40" patternUnits="userSpaceOnUse"><path d="M40 0H0V40" fill="none" stroke="#1B2A3F" stroke-width="1"/></pattern>
    <radialGradient id="glow" cx="80%" cy="35%" r="60%"><stop offset="0" stop-color="#137C6D" stop-opacity=".45"/><stop offset="1" stop-color="#070B14" stop-opacity="0"/></radialGradient>
    <linearGradient id="ln" x1="0" x2="1"><stop offset="0" stop-color="#22D3EE"/><stop offset="1" stop-color="#2DD4BF"/></linearGradient>
  </defs>
  <rect width="1200" height="630" fill="#070B14"/>
  <rect width="1200" height="630" fill="url(#grid)" opacity=".6"/>
  <rect width="1200" height="630" fill="url(#glow)"/>
  <g transform="translate(80 64)">
    <circle cx="36" cy="36" r="36" fill="#137C6D"/>
    <g fill="none" stroke="#fff" stroke-width="46" stroke-linecap="round" stroke-linejoin="round" transform="translate(-1 6) scale(.072)">
      <path d="M198 467H327L362 432L397 467H441"/><path d="M500 390L556 422V486L500 518L444 486V422Z"/><path d="M564 470L596 528L675 206L741 470L776 430L808 470"/>
    </g>
    <circle cx="35" cy="38.5" r="1.8" fill="#fff"/>
    <text x="90" y="48" fill="#fff" font-family="'Segoe UI','Noto Sans',Arial,sans-serif" font-size="32" font-weight="700" letter-spacing="1">Nitrotick</text>
  </g>
  <g font-family="'Segoe UI','Noto Sans',Arial,sans-serif">
    <text x="80" y="200" fill="#5EEAD4" font-size="21" font-weight="700" letter-spacing="4">REGULATORY ALIGNMENT</text>
    <text x="80" y="270" fill="#FFFFFF" font-size="60" font-weight="800">Technical evidence for</text><text x="80" y="340" fill="#5EEAD4" font-size="60" font-weight="800">NIS2, DORA &amp; AI Act.</text>
    <text x="80" y="406" fill="#C7D2E0" font-size="27">Durable execution, tamper-evident evidence and</text><text x="80" y="444" fill="#C7D2E0" font-size="27">governed AI for EU regulation.</text>
    <text x="80" y="566" fill="#8FA3BA" font-size="22" font-weight="600">nitrotick.com/compliance</text>
  </g>
  <g transform="translate(820 190)"><path d="M160 10l110 38v80c0 62-46 112-110 124C96 240 50 190 50 128V48z" fill="#0B2027" stroke="#22D3EE" stroke-width="3"/>
  <g font-family="'Segoe UI','Noto Sans',Arial,sans-serif" font-size="17" font-weight="700" text-anchor="middle">
    <rect x="100" y="60" width="120" height="30" rx="15" fill="#0B2A25" stroke="#2DD4BF"/><text x="160" y="81" fill="#5EEAD4">NIS2</text>
    <rect x="100" y="100" width="120" height="30" rx="15" fill="#0B2A25" stroke="#2DD4BF"/><text x="160" y="121" fill="#5EEAD4">DORA</text>
    <rect x="100" y="140" width="120" height="30" rx="15" fill="#0B2A25" stroke="#2DD4BF"/><text x="160" y="161" fill="#5EEAD4">EU AI Act</text>
    <rect x="100" y="180" width="120" height="30" rx="15" fill="#0B2A25" stroke="#2DD4BF"/><text x="160" y="201" fill="#5EEAD4">GDPR</text>
  </g></g>
</svg>
