<svg xmlns="http://www.w3.org/2000/svg" width="1200" height="630" viewBox="0 0 1200 630">
  <defs>
    <pattern id="grid" width="40" height="40" patternUnits="userSpaceOnUse"><path d="M40 0H0V40" fill="none" stroke="#1B2A3F" stroke-width="1"/></pattern>
    <radialGradient id="glow" cx="80%" cy="35%" r="60%"><stop offset="0" stop-color="#137C6D" stop-opacity=".45"/><stop offset="1" stop-color="#070B14" stop-opacity="0"/></radialGradient>
    <linearGradient id="ln" x1="0" x2="1"><stop offset="0" stop-color="#22D3EE"/><stop offset="1" stop-color="#2DD4BF"/></linearGradient>
  </defs>
  <rect width="1200" height="630" fill="#070B14"/>
  <rect width="1200" height="630" fill="url(#grid)" opacity=".6"/>
  <rect width="1200" height="630" fill="url(#glow)"/>
  <g transform="translate(80 64)">
    <circle cx="36" cy="36" r="36" fill="#137C6D"/>
    <g fill="none" stroke="#fff" stroke-width="46" stroke-linecap="round" stroke-linejoin="round" transform="translate(-1 6) scale(.072)">
      <path d="M198 467H327L362 432L397 467H441"/><path d="M500 390L556 422V486L500 518L444 486V422Z"/><path d="M564 470L596 528L675 206L741 470L776 430L808 470"/>
    </g>
    <circle cx="35" cy="38.5" r="1.8" fill="#fff"/>
    <text x="90" y="48" fill="#fff" font-family="'Segoe UI','Noto Sans',Arial,sans-serif" font-size="32" font-weight="700" letter-spacing="1">Nitrotick</text>
  </g>
  <g font-family="'Segoe UI','Noto Sans',Arial,sans-serif">
    <text x="80" y="200" fill="#5EEAD4" font-size="21" font-weight="700" letter-spacing="4">USE CASES</text>
    <text x="80" y="270" fill="#FFFFFF" font-size="60" font-weight="800">Where execution</text><text x="80" y="340" fill="#5EEAD4" font-size="60" font-weight="800">must be provable.</text>
    <text x="80" y="406" fill="#C7D2E0" font-size="27">Product passports, banking, insurance,</text><text x="80" y="444" fill="#C7D2E0" font-size="27">manufacturing and public sector.</text>
    <text x="80" y="566" fill="#8FA3BA" font-size="22" font-weight="600">nitrotick.com/use-cases</text>
  </g>
  <g transform="translate(820 190)"><g font-family="'Segoe UI','Noto Sans',Arial,sans-serif" text-anchor="middle" font-size="15" font-weight="700">
    <rect x="20" y="20" width="130" height="100" rx="18" fill="#0B2A25" stroke="#2DD4BF" stroke-width="3"/><text x="85" y="76" fill="#5EEAD4">Passports</text>
    <rect x="170" y="20" width="130" height="100" rx="18" fill="#1A1A3A" stroke="#6366F1" stroke-width="3"/><text x="235" y="76" fill="#A5B4FC">Banking</text>
    <rect x="20" y="140" width="130" height="100" rx="18" fill="#1A1A3A" stroke="#6366F1" stroke-width="3"/><text x="85" y="196" fill="#A5B4FC">Insurance</text>
    <rect x="170" y="140" width="130" height="100" rx="18" fill="#0B2A25" stroke="#2DD4BF" stroke-width="3"/><text x="235" y="196" fill="#5EEAD4">Industry</text>
  </g>
  <circle cx="160" cy="130" r="30" fill="#137C6D" stroke="#5EEAD4" stroke-width="3"/>
  <g transform="translate(162 132)"><path d="M-11 0l7 7 15-16" fill="none" stroke="#fff" stroke-width="5" stroke-linecap="round" stroke-linejoin="round"/></g></g>
</svg>
